/* XPM */
static char *result[] = {
/* columns rows colors chars-per-pixel */
"32 32 177 2 ",
"   c #1B0904",
".  c #1A0905",
"X  c #1B0905",
"o  c #1A0A07",
"O  c #1C0804",
"+  c #190A0A",
"@  c #1A0A0A",
"#  c #1F0F09",
"$  c #190C0D",
"%  c #1B0C0C",
"&  c #160E15",
"*  c #1B0F11",
"=  c #160F18",
"-  c #13101D",
";  c #13101F",
":  c #14111D",
">  c #16111C",
",  c #200E08",
"<  c #220F09",
"1  c #230F09",
"2  c #210F0A",
"3  c #27110A",
"4  c #22120D",
"5  c #24120E",
"6  c #28140C",
"7  c #29140C",
"8  c #29170E",
"9  c #2C170E",
"0  c #2B180E",
"q  c #2E180F",
"w  c #261716",
"e  c #261717",
"r  c #2D1B13",
"t  c #2A1814",
"y  c #271A1C",
"u  c #301A10",
"i  c #311B11",
"p  c #341E12",
"a  c #3A2215",
"s  c #131323",
"d  c #121425",
"f  c #11152A",
"g  c #10162E",
"h  c #181A2D",
"j  c #2C1F22",
"k  c #211D29",
"l  c #1F253A",
"z  c #2C2125",
"x  c #26212B",
"c  c #2E252B",
"v  c #3F2B23",
"b  c #3E2C27",
"n  c #352B2E",
"m  c #372D2C",
"M  c #392E2D",
"N  c #392F2D",
"B  c #222232",
"V  c #252B3F",
"C  c #3D3233",
"Z  c #3D3333",
"A  c #3E3434",
"S  c #3C3338",
"D  c #432919",
"F  c #472C1B",
"G  c #4E3220",
"H  c #4F3320",
"J  c #4F3321",
"K  c #503320",
"L  c #533623",
"P  c #553723",
"I  c #5C3D27",
"U  c #51392B",
"Y  c #5E3F28",
"T  c #443532",
"R  c #473733",
"E  c #44393A",
"W  c #5F4029",
"Q  c #544037",
"!  c #52413C",
"~  c #54423D",
"^  c #55433E",
"/  c #55443F",
"(  c #56443E",
")  c #61412A",
"_  c #66452C",
"`  c #724F33",
"'  c #745134",
"]  c #765235",
"[  c #222840",
"{  c #262B41",
"}  c #262F4A",
"|  c #2C334B",
" . c #2D344B",
".. c #303851",
"X. c #3F4356",
"o. c #38415A",
"O. c #3E4862",
"+. c #44404B",
"@. c #5D4A43",
"#. c #5B4B45",
"$. c #574A49",
"%. c #404357",
"&. c #494855",
"*. c #424658",
"=. c #4F4C5A",
"-. c #484A5D",
";. c #5A5157",
":. c #51505A",
">. c #67554C",
",. c #6C574B",
"<. c #6C5A4F",
"1. c #725C4E",
"2. c #434962",
"3. c #494E63",
"4. c #434E6B",
"5. c #444E6A",
"6. c #4D5164",
"7. c #4E5164",
"8. c #4D5267",
"9. c #45506D",
"0. c #4D556E",
"q. c #5D5A67",
"w. c #4F5C7A",
"e. c #535A73",
"r. c #565C73",
"t. c #565D75",
"y. c #595F77",
"u. c #515E7D",
"i. c #525E7D",
"p. c #505D7E",
"a. c #596077",
"s. c #5C6374",
"d. c #5D6176",
"f. c #5F6479",
"g. c #636679",
"h. c #61657B",
"j. c #61677E",
"k. c #61697A",
"l. c #656B7D",
"z. c #816957",
"x. c #846C59",
"c. c #866D59",
"v. c #576484",
"b. c #5F6A87",
"n. c #5B6889",
"m. c #626880",
"M. c #626A83",
"N. c #6C6F81",
"B. c #606D8E",
"V. c #6F7080",
"C. c #6B7488",
"Z. c #606F91",
"A. c #657190",
"S. c #637194",
"D. c #637294",
"F. c #657497",
"G. c #697696",
"H. c #677699",
"J. c #707991",
"K. c #7381A0",
"L. c #81828E",
"P. c #8B8A91",
"I. c #8A8A93",
"U. c #999799",
"Y. c #A09D9F",
"T. c #8C98AF",
"R. c #939CAC",
"E. c #96A1B5",
"W. c #9FA7B2",
"Q. c #A4A1A2",
"!. c #A7A3A3",
"~. c #A0A8B4",
"^. c #A3ABB7",
"/. c #AFB7C4",
"(. c #B4BCC7",
"). c #B7BFC9",
"_. c None",
/* pixels */
"_._._._.  X X X X X X X X X X X X X X X X X X X X X X   _._._._.",
"_._._._.< 5 e y y e 5 1 1 1 1 1 1 1 1 1 1 5 e y y e 5 < _._._._.",
"_._._.3 p b +.-.-.+.b a a a a a a a a a a b +.-.-.+.b p 3 _._._.",
"_._.O 6 D ( g.G.G.g.( H H H H H H H H H H ( g.G.G.g.( D 6 O _._.",
"_._.  9 K ,.L.T.T.L.,.) ) ) ) ) ) ) ) ) ) ,.L.T.T.L.,.K 9   _._.",
"_._.  u I z.Y././.Y.z.` ` ` ` ` ` ` ` ` ` z.Y././.Y.z.I u   _._.",
"_._.  i W c.!.).).!.c.] ] ] ] ] ] ] ] ] ] c.!.).).!.c.W i   _._.",
"_._.  i W c.!.).).!.c.] ] ] ] ] ] ] ] ] ] c.!.).).!.c.W i   _._.",
"_._.  i W c.!.).).!.c.] ] ] ] ] ] ] ] ] ] c.!.).).!.c.W i   _._.",
"_._.  i W c.!.).).!.c.] ] ] ] ] ] ] ] ] ] c.!.).).!.c.W i   _._.",
"_._.  i W c.!.).).!.c.] ] ] ] ] ] ] ] ] ] c.!.).).!.c.W i   _._.",
"_._.  i W c.!.).).!.c.] ] ] ] ] ] ] ] ] ] c.!.).).!.c.W i   _._.",
"_._.  i Y x.Q.(.(.Q.x.' ' ' ' ' ' ' ' ' ' x.Q.(.(.Q.x.Y i   _._.",
"_._.  q L 1.I.E.E.I.1._ _ _ _ _ _ _ _ _ _ 1.I.E.E.I.1.L q   _._.",
"_._.  7 F @.N.K.K.N.@.P P P P P P P P P P @.N.K.K.N.@.F 7   _._.",
"_._.  t R ;.M.H.H.M.;.#.>.<.<.<.<.<.<.>.#.;.M.H.H.M.;.R t   _._.",
"_._.  j =.m.A.H.H.A.m.V.P.U.U.U.U.U.U.P.V.m.A.H.H.A.m.=.j   _._.",
"_._.  z 7.b.B.Z.Z.B.b.J.R.^.~.W.W.~.^.R.J.b.B.Z.Z.B.b.7.z   _._.",
"_._.  w S &.0.w.w.0.&.:.l.C.k.s.s.k.C.l.:.&.0.w.w.0.&.S w   _._.",
"_._.. 2 r m X.4.4.%.M N *.O. .V V  .O.*.N M %.4.4.X.m r 2 . _._.",
"_._.o , 0 M 3.u.u.6.T T 6.9.| l l | 9.6.T T 6.u.u.3.M 0 , o _._.",
"_.: @ , 0 Z r.S.S.d.! ! d.i...l l ..i.d.! ! d.S.S.r.Z 0 , @ : _.",
"g - + , 0 A a.H.H.h.^ ^ h.n.5.o.o.5.n.h.^ ^ h.H.H.a.A 0 , + - g ",
"g - + , 0 A a.H.H.h.^ ^ h.D.n.v.v.n.D.h.^ ^ h.H.H.a.A 0 , + - g ",
"g - + , 0 A a.H.H.h.^ Q q.j.j.j.j.j.j.q.Q ^ h.H.H.a.A 0 , + - g ",
"g - + , 0 A a.H.H.h.^ U / $.$.$.$.$.$./ U ^ h.H.H.a.A 0 , + - g ",
"g ; $ # 8 C y.H.H.h.^ H J J J J J J J J H ^ h.H.H.y.C 8 # $ ; g ",
"g d = * 4 n t.H.H.h.^ H H H H H H H H H H ^ h.H.H.t.n 4 * = d g ",
"_._.f > % c e.F.F.f.~ G G G G G G G G G G ~ f.F.F.e.c % > f _._.",
"_._._.s & x 2.p.p.8.E v v v v v v v v v v E 8.p.p.2.x & s _._._.",
"_._._.f d h [ } } { B k k k k k k k k k k B { } } [ h d f _._._.",
"_._._.g g g g g g g g g g g g g g g g g g g g g g g g g g _._._."
};
