/* XPM */
static char *result[] = {
/* columns rows colors chars-per-pixel */
"32 32 92 1 ",
"  c black",
". c #010000",
"X c #010100",
"o c #020101",
"O c #030201",
"+ c #040201",
"@ c #060201",
"# c #080201",
"$ c #090603",
"% c #0C0704",
"& c #0B0805",
"* c #0D0805",
"= c #0E0905",
"- c #0F0906",
"; c #110503",
": c #140703",
"> c #110B07",
", c #120B07",
"< c #120C07",
"1 c #1B0905",
"2 c #1B0B07",
"3 c #1B110B",
"4 c #19120B",
"5 c #1A120B",
"6 c #1D110A",
"7 c #1D140D",
"8 c #27130B",
"9 c #27140C",
"0 c #25160D",
"q c #24170E",
"w c #26170E",
"e c #2B160E",
"r c #2D170E",
"t c #27190F",
"y c #28190F",
"u c #221810",
"i c #2E1C11",
"p c #311B11",
"a c #321F12",
"s c #2E2014",
"d c #342013",
"f c #322014",
"g c #322115",
"h c #352014",
"j c #362114",
"k c #362215",
"l c #352216",
"z c #362316",
"x c #392517",
"c c #3E2718",
"v c #3F2718",
"b c #2D2429",
"n c #382A2A",
"m c #342D35",
"M c #3D3031",
"N c #412A1A",
"B c #422A1A",
"V c #432A1A",
"C c #432B1B",
"Z c #452A1A",
"A c #442C1C",
"S c #472D1C",
"D c #482F1D",
"F c #49301E",
"G c #4B311F",
"H c #4C3522",
"J c #4E3522",
"K c #4F3729",
"L c #513521",
"P c #513522",
"I c #543723",
"U c #553824",
"Y c #583A25",
"T c #593B25",
"R c #583D27",
"E c #5F4029",
"W c #5F4129",
"Q c #60412A",
"! c #64442C",
"~ c #65452C",
"^ c #65462D",
"/ c #67472D",
"( c #67472E",
") c #68472E",
"_ c #6B492F",
"` c #6C4A2F",
"' c #765235",
"] c #4D4E60",
"[ c #535A73",
"{ c #57607B",
"} c #677699",
"| c None",
/* pixels */
"11111111111111111111111111111m{}",
"pppppppppppppppppppppppppppppM][",
"EEEEEEEEEEEEEEEEEEEEEEEEEEEEEKnb",
"'''''''''''''''''''''''''''''Yr1",
"'''''''''''''''''''''''''''''Yr1",
"`_/!!!!!!!!!!!!!!!!!!!!!!!~(_Pe1",
"TIFBBBBBBBBBBBBBBBBBBBBBBBCGUZ81",
"TLcajkiw000000000000000000wxPZ81",
"`QAdvNt-%%%%%%%%%%%%%%%%%%=gWPe1",
"')DhVSq+                  os^Yr1",
"')DhVSq+                  os^Yr1",
"')DhVSq+                  os^Yr1",
"')DhVSq+                  os^Yr1",
"')DhVSq+                  os^Yr1",
"')DhVSq+                  os^Yr1",
"')DhVSq+                  os^Yr1",
"')DhVSq+                  os^Yr1",
"')DhVSq+                  os^Yr1",
"')DhVSq+                  os^Yr1",
"')DhVSq+                  os^Yr1",
"')DhVSq+                  os^Yr1",
"')DhVSq+                  os^Yr1",
"')DhVSq+                  os^Yr1",
"')DhVSq+                  os^Yr1",
"')DhVSq+                  os^Yr1",
"')DhVSq+                  os^Yr1",
"')DhVSq+                  os^Yr1",
"RJzyfl3O                  ouHA91",
"75<*>,$X                  .&4621",
"                             #;:",
"||||||||||||||||||||||||||||||@@",
"||||||||||||||||||||||||||||||  "
};
