/* XPM */
static char *result[] = {
/* columns rows colors chars-per-pixel */
"38 30 7 1 ",
"  c #21110D",
". c #342319",
"X c #181C32",
"o c #503625",
"O c #755338",
"+ c #9D7658",
"@ c None",
/* pixels */
"@@@@@@@@@@@@@@@@@@@@@@@@@@@@@@@@@@@@@@",
"@@@@@@@@@@@@@@@@@@@@@@@@@@@@@@@@@@@@@@",
"@@@@@@@@@@@@@@@@@@@@@@@@@@@@@@@@@@@@@@",
"@@@@@@@@@@@@@@@@@@@@@@@@@@@@@@@@@@@@@@",
"@@@@@@@@@@@@@@@@@@@@@@@@@@@@@@@@@@@@@@",
"@@@@@@@@@@@@@@@@@@@@@@@@@@@@@@@@@@@@@@",
"@@@@@@@@@@@@@        @@@@@@@@@@@@@@@@@",
"@@@@@@@@@@@  ++OO+O+O  @@@@@@@@@@@@@@@",
"@@@@@@@@@@ O+OO++++OO+O @@@@@@@@@@@@@@",
"@@@@@@@@@ O++O++++++O++O @@@@@@@@@@@@@",
"@@@@@@@  ..+++OOO++++++. @@@@@@@@@@@@@",
"@@@@@@ Oo.oO+++OOOOOO+Ooo @@@@@@@@@@@@",
"@@@@@ OO..o.Oo+++++++OooO @@@@@@@@@@@@",
"@@@@X O .Ooo.OOOOOoOOoo.oO @@@@@@@@@@@",
"@@@@X  .OOOo.OOOOoooOOo..o. @@@@@@@@@@",
"@@@@@X OOooo oOoooOoOOo..OO. @@@@@@@@@",
"@@@@@ OOOOo. OOOoOOOOOo..oOO @@@@@@@@@",
"@@@@@ OOOOo oOOOoO.OOOOo .oo X@@@@@@@@",
"@@@@X OOOo. OOOOO..oOoOO  oo X@@@@@@@@",
"@@@@X ooo. oOOOoO. .oOOOO XXX@@@@@@@@@",
"@@@@@XXXXX OOOooo. .oOOOOO X@@@@@@@@@@",
"@@@@@@@@XX OOOoo.   ooOOOo X@@@@@@@@@@",
"@@@@@@@@@X ooooo.XXX ooooo X@@@@@@@@@@",
"@@@@@@@@@@XXXXXXXX@@XXXXXXX@@@@@@@@@@@",
"@@@@@@@@@@@@@@@@@@@@@@@@@@@@@@@@@@@@@@",
"@@@@@@@@@@@@@@@@@@@@@@@@@@@@@@@@@@@@@@",
"@@@@@@@@@@@@@@@@@@@@@@@@@@@@@@@@@@@@@@",
"@@@@@@@@@@@@@@@@@@@@@@@@@@@@@@@@@@@@@@",
"@@@@@@@@@@@@@@@@@@@@@@@@@@@@@@@@@@@@@@",
"@@@@@@@@@@@@@@@@@@@@@@@@@@@@@@@@@@@@@@"
};
